<mxfile host="app.diagrams.net" modified="2024-05-16T22:15:55.629Z" agent="Mozilla/5.0 (Windows NT 10.0; Win64; x64) AppleWebKit/537.36 (KHTML, like Gecko) Chrome/124.0.0.0 Safari/537.36" etag="1HqKiYoMSFjaSJMz-IRZ" version="24.4.3" type="device">
  <diagram name="Page-1" id="2YBvvXClWsGukQMizWep">
    <mxGraphModel dx="2140" dy="556" grid="1" gridSize="10" guides="1" tooltips="1" connect="1" arrows="1" fold="1" page="1" pageScale="1" pageWidth="850" pageHeight="1100" math="0" shadow="0">
      <root>
        <mxCell id="0" />
        <mxCell id="1" parent="0" />
        <mxCell id="bMYodPDiNe-mnN-WjoR--67" value="&lt;span style=&quot;text-wrap: nowrap;&quot;&gt;ShowNextImages&lt;/span&gt;" style="shape=umlLifeline;perimeter=lifelinePerimeter;whiteSpace=wrap;html=1;container=0;dropTarget=0;collapsible=0;recursiveResize=0;outlineConnect=0;portConstraint=eastwest;newEdgeStyle={&quot;edgeStyle&quot;:&quot;elbowEdgeStyle&quot;,&quot;elbow&quot;:&quot;vertical&quot;,&quot;curved&quot;:0,&quot;rounded&quot;:0};" parent="1" vertex="1">
          <mxGeometry x="93" y="59" width="155" height="411" as="geometry" />
        </mxCell>
        <mxCell id="bMYodPDiNe-mnN-WjoR--68" value="" style="html=1;points=[];perimeter=orthogonalPerimeter;outlineConnect=0;targetShapes=umlLifeline;portConstraint=eastwest;newEdgeStyle={&quot;edgeStyle&quot;:&quot;elbowEdgeStyle&quot;,&quot;elbow&quot;:&quot;vertical&quot;,&quot;curved&quot;:0,&quot;rounded&quot;:0};" parent="bMYodPDiNe-mnN-WjoR--67" vertex="1">
          <mxGeometry x="72.5" y="60" width="10" height="340" as="geometry" />
        </mxCell>
        <mxCell id="bMYodPDiNe-mnN-WjoR--71" value="DoGet" style="html=1;verticalAlign=bottom;startArrow=circle;startFill=1;endArrow=open;startSize=6;endSize=8;curved=0;rounded=0;" parent="1" edge="1">
          <mxGeometry width="80" relative="1" as="geometry">
            <mxPoint x="85" y="130" as="sourcePoint" />
            <mxPoint x="165" y="130" as="targetPoint" />
            <mxPoint as="offset" />
          </mxGeometry>
        </mxCell>
        <mxCell id="bMYodPDiNe-mnN-WjoR--75" value="ShowNextImages" style="text;html=1;align=center;verticalAlign=middle;resizable=0;points=[];autosize=1;strokeColor=none;fillColor=none;" parent="1" vertex="1">
          <mxGeometry x="28" y="20" width="120" height="30" as="geometry" />
        </mxCell>
        <mxCell id="bMYodPDiNe-mnN-WjoR--76" value="&lt;div&gt;Get&lt;/div&gt;&lt;div&gt;/ShowNextImages&lt;/div&gt;&lt;div&gt;?albumId=albumId&lt;/div&gt;&lt;div&gt;?pageNumber=pageNumber&lt;/div&gt;&lt;div&gt;From: Album.html&lt;/div&gt;&lt;div&gt;&lt;br&gt;&lt;/div&gt;" style="text;html=1;align=center;verticalAlign=middle;resizable=0;points=[];autosize=1;strokeColor=none;fillColor=none;" parent="1" vertex="1">
          <mxGeometry x="-5" y="147" width="180" height="100" as="geometry" />
        </mxCell>
        <mxCell id="bMYodPDiNe-mnN-WjoR--85" value="" style="endArrow=classic;html=1;rounded=0;" parent="1" edge="1" target="bMYodPDiNe-mnN-WjoR--89">
          <mxGeometry width="50" height="50" relative="1" as="geometry">
            <mxPoint x="175" y="410" as="sourcePoint" />
            <mxPoint x="595" y="410" as="targetPoint" />
          </mxGeometry>
        </mxCell>
        <mxCell id="bMYodPDiNe-mnN-WjoR--86" value="TemplateEngine" style="shape=umlLifeline;perimeter=lifelinePerimeter;whiteSpace=wrap;html=1;container=0;dropTarget=0;collapsible=0;recursiveResize=0;outlineConnect=0;portConstraint=eastwest;newEdgeStyle={&quot;edgeStyle&quot;:&quot;elbowEdgeStyle&quot;,&quot;elbow&quot;:&quot;vertical&quot;,&quot;curved&quot;:0,&quot;rounded&quot;:0};" parent="1" vertex="1">
          <mxGeometry x="739" y="59" width="119" height="411" as="geometry" />
        </mxCell>
        <mxCell id="bMYodPDiNe-mnN-WjoR--87" value="" style="html=1;points=[];perimeter=orthogonalPerimeter;outlineConnect=0;targetShapes=umlLifeline;portConstraint=eastwest;newEdgeStyle={&quot;edgeStyle&quot;:&quot;elbowEdgeStyle&quot;,&quot;elbow&quot;:&quot;vertical&quot;,&quot;curved&quot;:0,&quot;rounded&quot;:0};" parent="bMYodPDiNe-mnN-WjoR--86" vertex="1">
          <mxGeometry x="54" y="379" width="10" height="20" as="geometry" />
        </mxCell>
        <mxCell id="bMYodPDiNe-mnN-WjoR--88" value="ctx" style="shape=umlLifeline;perimeter=lifelinePerimeter;whiteSpace=wrap;html=1;container=0;dropTarget=0;collapsible=0;recursiveResize=0;outlineConnect=0;portConstraint=eastwest;newEdgeStyle={&quot;edgeStyle&quot;:&quot;elbowEdgeStyle&quot;,&quot;elbow&quot;:&quot;vertical&quot;,&quot;curved&quot;:0,&quot;rounded&quot;:0};" parent="1" vertex="1">
          <mxGeometry x="669" y="59" width="50" height="411" as="geometry" />
        </mxCell>
        <mxCell id="bMYodPDiNe-mnN-WjoR--89" value="" style="html=1;points=[];perimeter=orthogonalPerimeter;outlineConnect=0;targetShapes=umlLifeline;portConstraint=eastwest;newEdgeStyle={&quot;edgeStyle&quot;:&quot;elbowEdgeStyle&quot;,&quot;elbow&quot;:&quot;vertical&quot;,&quot;curved&quot;:0,&quot;rounded&quot;:0};" parent="bMYodPDiNe-mnN-WjoR--88" vertex="1">
          <mxGeometry x="20" y="274" width="10" height="103" as="geometry" />
        </mxCell>
        <mxCell id="bMYodPDiNe-mnN-WjoR--91" value="" style="endArrow=classic;html=1;rounded=0;" parent="1" target="bMYodPDiNe-mnN-WjoR--87" edge="1">
          <mxGeometry width="50" height="50" relative="1" as="geometry">
            <mxPoint x="175" y="449" as="sourcePoint" />
            <mxPoint x="699" y="449" as="targetPoint" />
          </mxGeometry>
        </mxCell>
        <mxCell id="bMYodPDiNe-mnN-WjoR--93" value="process(ctx, &quot;Album.html&quot;)" style="text;html=1;align=center;verticalAlign=middle;resizable=0;points=[];autosize=1;strokeColor=none;fillColor=none;" parent="1" vertex="1">
          <mxGeometry x="268" y="426" width="160" height="30" as="geometry" />
        </mxCell>
        <mxCell id="bMYodPDiNe-mnN-WjoR--94" value="ImageDAO" style="shape=umlLifeline;perimeter=lifelinePerimeter;whiteSpace=wrap;html=1;container=0;dropTarget=0;collapsible=0;recursiveResize=0;outlineConnect=0;portConstraint=eastwest;newEdgeStyle={&quot;edgeStyle&quot;:&quot;elbowEdgeStyle&quot;,&quot;elbow&quot;:&quot;vertical&quot;,&quot;curved&quot;:0,&quot;rounded&quot;:0};" parent="1" vertex="1">
          <mxGeometry x="435" y="59" width="100" height="411" as="geometry" />
        </mxCell>
        <mxCell id="bMYodPDiNe-mnN-WjoR--95" value="" style="html=1;points=[];perimeter=orthogonalPerimeter;outlineConnect=0;targetShapes=umlLifeline;portConstraint=eastwest;newEdgeStyle={&quot;edgeStyle&quot;:&quot;elbowEdgeStyle&quot;,&quot;elbow&quot;:&quot;vertical&quot;,&quot;curved&quot;:0,&quot;rounded&quot;:0};" parent="bMYodPDiNe-mnN-WjoR--94" vertex="1">
          <mxGeometry x="45" y="170" width="10" height="60" as="geometry" />
        </mxCell>
        <mxCell id="bMYodPDiNe-mnN-WjoR--96" value="" style="endArrow=classic;html=1;rounded=0;exitX=1.02;exitY=0.085;exitDx=0;exitDy=0;exitPerimeter=0;" parent="1" edge="1" target="bMYodPDiNe-mnN-WjoR--95">
          <mxGeometry width="50" height="50" relative="1" as="geometry">
            <mxPoint x="174.99999999999986" y="238.00000000000006" as="sourcePoint" />
            <mxPoint x="460" y="238" as="targetPoint" />
          </mxGeometry>
        </mxCell>
        <mxCell id="bMYodPDiNe-mnN-WjoR--97" value="&lt;font style=&quot;font-size: 11px;&quot;&gt;new ImageDAO()&lt;/font&gt;" style="text;html=1;align=center;verticalAlign=middle;resizable=0;points=[];autosize=1;strokeColor=none;fillColor=none;" parent="1" vertex="1">
          <mxGeometry x="290" y="211" width="110" height="30" as="geometry" />
        </mxCell>
        <mxCell id="bMYodPDiNe-mnN-WjoR--98" value="" style="endArrow=classic;html=1;rounded=0;exitX=1.02;exitY=0.085;exitDx=0;exitDy=0;exitPerimeter=0;" parent="1" edge="1" target="bMYodPDiNe-mnN-WjoR--95">
          <mxGeometry width="50" height="50" relative="1" as="geometry">
            <mxPoint x="174.99999999999986" y="258.00000000000006" as="sourcePoint" />
            <mxPoint x="460" y="258" as="targetPoint" />
          </mxGeometry>
        </mxCell>
        <mxCell id="bMYodPDiNe-mnN-WjoR--99" value="findImagesForAlbum(albumId)" style="text;html=1;align=center;verticalAlign=middle;resizable=0;points=[];autosize=1;strokeColor=none;fillColor=none;" parent="1" vertex="1">
          <mxGeometry x="255" y="234" width="180" height="30" as="geometry" />
        </mxCell>
        <mxCell id="bMYodPDiNe-mnN-WjoR--100" value="images" style="html=1;verticalAlign=bottom;endArrow=open;dashed=1;endSize=8;edgeStyle=elbowEdgeStyle;elbow=vertical;curved=0;rounded=0;" parent="1" edge="1">
          <mxGeometry x="0.4558" relative="1" as="geometry">
            <mxPoint x="175.5" y="278" as="targetPoint" />
            <Array as="points">
              <mxPoint x="455" y="278" />
            </Array>
            <mxPoint x="480" y="278" as="sourcePoint" />
            <mxPoint as="offset" />
          </mxGeometry>
        </mxCell>
        <mxCell id="bMYodPDiNe-mnN-WjoR--102" value="" style="endArrow=classic;html=1;rounded=0;" parent="1" edge="1" target="bMYodPDiNe-mnN-WjoR--89">
          <mxGeometry width="50" height="50" relative="1" as="geometry">
            <mxPoint x="175" y="347" as="sourcePoint" />
            <mxPoint x="595" y="347" as="targetPoint" />
          </mxGeometry>
        </mxCell>
        <mxCell id="bMYodPDiNe-mnN-WjoR--103" value="" style="endArrow=classic;html=1;rounded=0;" parent="1" edge="1" target="bMYodPDiNe-mnN-WjoR--89">
          <mxGeometry width="50" height="50" relative="1" as="geometry">
            <mxPoint x="175" y="367" as="sourcePoint" />
            <mxPoint x="595" y="367" as="targetPoint" />
          </mxGeometry>
        </mxCell>
        <mxCell id="bMYodPDiNe-mnN-WjoR--104" value="" style="endArrow=classic;html=1;rounded=0;" parent="1" edge="1" target="bMYodPDiNe-mnN-WjoR--89">
          <mxGeometry width="50" height="50" relative="1" as="geometry">
            <mxPoint x="175" y="389" as="sourcePoint" />
            <mxPoint x="595" y="389" as="targetPoint" />
          </mxGeometry>
        </mxCell>
        <mxCell id="bMYodPDiNe-mnN-WjoR--105" value="&lt;font style=&quot;font-size: 10px;&quot;&gt;setVariable(images)&lt;/font&gt;" style="text;html=1;align=center;verticalAlign=middle;resizable=0;points=[];autosize=1;strokeColor=none;fillColor=none;" parent="1" vertex="1">
          <mxGeometry x="275" y="324" width="110" height="30" as="geometry" />
        </mxCell>
        <mxCell id="bMYodPDiNe-mnN-WjoR--106" value="&lt;font style=&quot;font-size: 10px;&quot;&gt;setVariable(hasPrevious)&lt;/font&gt;" style="text;html=1;align=center;verticalAlign=middle;resizable=0;points=[];autosize=1;strokeColor=none;fillColor=none;" parent="1" vertex="1">
          <mxGeometry x="265" y="344" width="130" height="30" as="geometry" />
        </mxCell>
        <mxCell id="bMYodPDiNe-mnN-WjoR--107" value="&lt;font style=&quot;font-size: 10px;&quot;&gt;setVariable(hasNext)&lt;/font&gt;" style="text;html=1;align=center;verticalAlign=middle;resizable=0;points=[];autosize=1;strokeColor=none;fillColor=none;" parent="1" vertex="1">
          <mxGeometry x="270" y="364" width="120" height="30" as="geometry" />
        </mxCell>
        <mxCell id="bMYodPDiNe-mnN-WjoR--108" value="&lt;font style=&quot;font-size: 10px;&quot;&gt;setVariable(albumId)&lt;/font&gt;" style="text;html=1;align=center;verticalAlign=middle;resizable=0;points=[];autosize=1;strokeColor=none;fillColor=none;" parent="1" vertex="1">
          <mxGeometry x="270" y="384" width="120" height="30" as="geometry" />
        </mxCell>
        <mxCell id="2e4i2uAu6kTsf5YOsnZ8-1" value="" style="endArrow=classic;html=1;rounded=0;" edge="1" parent="1" target="bMYodPDiNe-mnN-WjoR--89">
          <mxGeometry width="50" height="50" relative="1" as="geometry">
            <mxPoint x="176" y="429.5" as="sourcePoint" />
            <mxPoint x="596" y="429.5" as="targetPoint" />
          </mxGeometry>
        </mxCell>
        <mxCell id="2e4i2uAu6kTsf5YOsnZ8-2" value="&lt;font style=&quot;font-size: 10px;&quot;&gt;setVariable(pageNumber)&lt;/font&gt;" style="text;html=1;align=center;verticalAlign=middle;resizable=0;points=[];autosize=1;strokeColor=none;fillColor=none;" vertex="1" parent="1">
          <mxGeometry x="270" y="406" width="140" height="30" as="geometry" />
        </mxCell>
        <mxCell id="2e4i2uAu6kTsf5YOsnZ8-3" value="ErrorHandler" style="shape=umlLifeline;perimeter=lifelinePerimeter;whiteSpace=wrap;html=1;container=0;dropTarget=0;collapsible=0;recursiveResize=0;outlineConnect=0;portConstraint=eastwest;newEdgeStyle={&quot;edgeStyle&quot;:&quot;elbowEdgeStyle&quot;,&quot;elbow&quot;:&quot;vertical&quot;,&quot;curved&quot;:0,&quot;rounded&quot;:0};" vertex="1" parent="1">
          <mxGeometry x="550" y="59" width="100" height="401" as="geometry" />
        </mxCell>
        <mxCell id="2e4i2uAu6kTsf5YOsnZ8-4" value="" style="html=1;points=[];perimeter=orthogonalPerimeter;outlineConnect=0;targetShapes=umlLifeline;portConstraint=eastwest;newEdgeStyle={&quot;edgeStyle&quot;:&quot;elbowEdgeStyle&quot;,&quot;elbow&quot;:&quot;vertical&quot;,&quot;curved&quot;:0,&quot;rounded&quot;:0};" vertex="1" parent="2e4i2uAu6kTsf5YOsnZ8-3">
          <mxGeometry x="45" y="77" width="10" height="203" as="geometry" />
        </mxCell>
        <mxCell id="2e4i2uAu6kTsf5YOsnZ8-5" value="" style="endArrow=classic;html=1;rounded=0;" edge="1" parent="1">
          <mxGeometry width="50" height="50" relative="1" as="geometry">
            <mxPoint x="175" y="324.5" as="sourcePoint" />
            <mxPoint x="595" y="324.5" as="targetPoint" />
          </mxGeometry>
        </mxCell>
        <mxCell id="2e4i2uAu6kTsf5YOsnZ8-6" value="&lt;span style=&quot;font-size: 10px;&quot;&gt;[pageNumber&amp;lt;=0 || pageNumber&amp;gt;=⌈images.size/5⌉ ]&amp;nbsp;&lt;/span&gt;&lt;div&gt;&lt;span style=&quot;font-size: 10px;&quot;&gt;displayError (request, response, &quot;wrong page number&quot;)&lt;/span&gt;&lt;/div&gt;" style="text;html=1;align=center;verticalAlign=middle;resizable=0;points=[];autosize=1;strokeColor=none;fillColor=none;" vertex="1" parent="1">
          <mxGeometry x="217" y="287" width="270" height="40" as="geometry" />
        </mxCell>
        <mxCell id="2e4i2uAu6kTsf5YOsnZ8-7" value="AlbumDAO" style="shape=umlLifeline;perimeter=lifelinePerimeter;whiteSpace=wrap;html=1;container=0;dropTarget=0;collapsible=0;recursiveResize=0;outlineConnect=0;portConstraint=eastwest;newEdgeStyle={&quot;edgeStyle&quot;:&quot;elbowEdgeStyle&quot;,&quot;elbow&quot;:&quot;vertical&quot;,&quot;curved&quot;:0,&quot;rounded&quot;:0};" vertex="1" parent="1">
          <mxGeometry x="316" y="59" width="100" height="131" as="geometry" />
        </mxCell>
        <mxCell id="2e4i2uAu6kTsf5YOsnZ8-8" value="" style="html=1;points=[];perimeter=orthogonalPerimeter;outlineConnect=0;targetShapes=umlLifeline;portConstraint=eastwest;newEdgeStyle={&quot;edgeStyle&quot;:&quot;elbowEdgeStyle&quot;,&quot;elbow&quot;:&quot;vertical&quot;,&quot;curved&quot;:0,&quot;rounded&quot;:0};" vertex="1" parent="2e4i2uAu6kTsf5YOsnZ8-7">
          <mxGeometry x="45" y="67" width="10" height="73" as="geometry" />
        </mxCell>
        <mxCell id="2e4i2uAu6kTsf5YOsnZ8-9" value="" style="endArrow=classic;html=1;rounded=0;exitX=0.025;exitY=1.03;exitDx=0;exitDy=0;exitPerimeter=0;" edge="1" parent="1">
          <mxGeometry width="50" height="50" relative="1" as="geometry">
            <mxPoint x="177" y="139.99999999999997" as="sourcePoint" />
            <mxPoint x="357" y="141" as="targetPoint" />
          </mxGeometry>
        </mxCell>
        <mxCell id="2e4i2uAu6kTsf5YOsnZ8-10" value="" style="endArrow=classic;html=1;rounded=0;exitX=0.025;exitY=1.03;exitDx=0;exitDy=0;exitPerimeter=0;" edge="1" parent="1" target="2e4i2uAu6kTsf5YOsnZ8-8">
          <mxGeometry width="50" height="50" relative="1" as="geometry">
            <mxPoint x="178" y="158.99999999999997" as="sourcePoint" />
            <mxPoint x="352" y="160" as="targetPoint" />
          </mxGeometry>
        </mxCell>
        <mxCell id="2e4i2uAu6kTsf5YOsnZ8-11" value="&lt;font style=&quot;font-size: 10px;&quot;&gt;new&amp;nbsp; AlbumDAO()&lt;/font&gt;" style="text;html=1;align=center;verticalAlign=middle;resizable=0;points=[];autosize=1;strokeColor=none;fillColor=none;" vertex="1" parent="1">
          <mxGeometry x="187" y="120" width="100" height="30" as="geometry" />
        </mxCell>
        <mxCell id="2e4i2uAu6kTsf5YOsnZ8-12" value="&lt;span style=&quot;font-size: 10px;&quot;&gt;findAlbumById(albumId)&lt;/span&gt;" style="text;html=1;align=center;verticalAlign=middle;resizable=0;points=[];autosize=1;strokeColor=none;fillColor=none;" vertex="1" parent="1">
          <mxGeometry x="202" y="136" width="130" height="30" as="geometry" />
        </mxCell>
        <mxCell id="2e4i2uAu6kTsf5YOsnZ8-13" value="album" style="html=1;verticalAlign=bottom;endArrow=open;dashed=1;endSize=8;edgeStyle=elbowEdgeStyle;elbow=vertical;curved=0;rounded=0;" edge="1" parent="1" source="2e4i2uAu6kTsf5YOsnZ8-8">
          <mxGeometry x="0.4591" relative="1" as="geometry">
            <mxPoint x="177" y="180" as="targetPoint" />
            <Array as="points">
              <mxPoint x="307" y="180" />
            </Array>
            <mxPoint x="300" y="176" as="sourcePoint" />
            <mxPoint as="offset" />
          </mxGeometry>
        </mxCell>
        <mxCell id="2e4i2uAu6kTsf5YOsnZ8-14" value="" style="endArrow=classic;html=1;rounded=0;" edge="1" parent="1">
          <mxGeometry width="50" height="50" relative="1" as="geometry">
            <mxPoint x="176" y="218" as="sourcePoint" />
            <mxPoint x="596" y="218" as="targetPoint" />
          </mxGeometry>
        </mxCell>
        <mxCell id="2e4i2uAu6kTsf5YOsnZ8-15" value="&lt;span style=&quot;font-size: 10px;&quot;&gt;[album===null] displayError(request, response, &quot;album not found&quot;&lt;/span&gt;" style="text;html=1;align=center;verticalAlign=middle;resizable=0;points=[];autosize=1;strokeColor=none;fillColor=none;" vertex="1" parent="1">
          <mxGeometry x="250" y="192.5" width="310" height="30" as="geometry" />
        </mxCell>
      </root>
    </mxGraphModel>
  </diagram>
</mxfile>
